<svg width="104" height="155" viewBox="0 0 104 155" fill="none" xmlns="http://www.w3.org/2000/svg">
<path d="M45.024 72.216L3.072 47.256V40.536L44.736 18.168V30.168L16.704 43.992L45.024 59.448V72.216ZM52.26 75V6.47H74.15C78.33 6.47 81.96 6.91 85.04 7.79C88.1933 8.59666 90.7967 9.80666 92.85 11.42C94.9767 12.96 96.5533 14.83 97.58 17.03C98.68 19.1567 99.23 21.54 99.23 24.18C99.23 25.94 98.8633 27.81 98.13 29.79C97.3967 31.6967 96.3333 33.4567 94.94 35.07C93.5467 36.6833 91.8233 37.93 89.77 38.81C91.6033 39.69 93.2533 40.7167 94.72 41.89C96.26 43.0633 97.5433 44.3467 98.57 45.74C99.67 47.06 100.477 48.49 100.99 50.03C101.577 51.57 101.87 53.1833 101.87 54.87C101.87 57.8767 101.283 60.6267 100.11 63.12C98.9367 65.6133 97.1767 67.74 94.83 69.5C92.4833 71.26 89.5867 72.6167 86.14 73.57C82.6933 74.5233 78.66 75 74.04 75H52.26ZM67.88 62.35H75.25C77.5233 62.35 79.43 62.02 80.97 61.36C82.51 60.6267 83.6833 59.6733 84.49 58.5C85.2967 57.3267 85.7 56.0067 85.7 54.54C85.7 52.7067 85.2967 51.13 84.49 49.81C83.7567 48.4167 82.4733 47.3533 80.64 46.62C78.88 45.8133 76.4967 45.41 73.49 45.41H67.88V62.35ZM67.88 33.2H73.16C75.8733 33.2 77.9633 32.9067 79.43 32.32C80.97 31.66 82.0333 30.7433 82.62 29.57C83.2067 28.3967 83.5 27.04 83.5 25.5C83.5 24.4 83.3167 23.4467 82.95 22.64C82.5833 21.8333 81.9967 21.1733 81.19 20.66C80.4567 20.0733 79.5033 19.6333 78.33 19.34C77.1567 19.0467 75.8 18.9 74.26 18.9H67.88V33.2ZM26.64 145.128L16.656 140.808L46.224 76.968L56.016 81.96L26.64 145.128Z" fill="#2CB67D"/>
<path d="M57.552 140.216V128.024L85.776 111.992L57.648 98.168V86.168L99.504 108.536V115.256L57.552 140.216Z" fill="#2CB67D"/>
</svg>
